# xmcd
#
# Track frame offsets:
#	150
#	13825
#	31242
#	45677
#	63152
#	83410
#	93472
#	106597
#	128542
#	146687
#	155725
#
# Disc length: 2274 seconds
#
# Revision: 0
# Processed by: cddbd v1.5.2PL0 Copyright (c) Steve Scherf et al.
# Submitted via: EasyCDDAExtractor 4.5.2.1
#
DISCID=8008e00b
DTITLE=Kim Carson - calle de orleans
DYEAR=2001
DGENRE=Country
TTITLE0=going back to Louisiana
TTITLE1=no one to blame
TTITLE2=midnight angel
TTITLE3=not a big deal
TTITLE4=heart/home
TTITLE5=honky tonk girl
TTITLE6=burned by an old flame
TTITLE7=wondering
TTITLE8=heartbeat away
TTITLE9=just because you are gone
TTITLE10=after the glitter fades
EXTD=
EXTT0=
EXTT1=
EXTT2=
EXTT3=
EXTT4=
EXTT5=
EXTT6=
EXTT7=
EXTT8=
EXTT9=
EXTT10=
PLAYORDER=
